# xmcd CD database file
#
# Track frame offsets:
#	150
#	20595
#	42190
#	68005
#
# Disc length: 1041 seconds
#
# Revision: 0
# Processed by: cddbd v1.5PL3 Copyright (c) Steve Scherf et al.
# Submitted via: CDex 1.50
#
DISCID=2b040f04
DTITLE=山崎まさよし - Passage
DYEAR=1999
DGENRE=Bluegrass
TTITLE0=Passage
TTITLE1=江古田
TTITLE2=僕はここにいる (Live Version)
TTITLE3=mud skiffle trackVI
EXTD=YEAR: 1999
EXTT0=
EXTT1=
EXTT2=
EXTT3=
PLAYORDER=
